<svg width="60" height="60" viewBox="0 0 60 60" fill="none" xmlns="http://www.w3.org/2000/svg">
<circle cx="30" cy="30" r="30" fill="black"/>
<path d="M34.0833 17.1667H24.75C23.9764 17.1667 23.2346 17.474 22.6876 18.021C22.1406 18.568 21.8333 19.3099 21.8333 20.0834V39.9167C21.8333 40.6903 22.1406 41.4322 22.6876 41.9791C23.2346 42.5261 23.9764 42.8334 24.75 42.8334H34.0833C34.8569 42.8334 35.5987 42.5261 36.1457 41.9791C36.6927 41.4322 37 40.6903 37 39.9167V20.0834C37 19.3099 36.6927 18.568 36.1457 18.021C35.5987 17.474 34.8569 17.1667 34.0833 17.1667ZM29.4166 41.6667C28.4483 41.6667 27.6666 40.8851 27.6666 39.9167C27.6666 38.9484 28.4483 38.1667 29.4166 38.1667C30.385 38.1667 31.1666 38.9484 31.1666 39.9167C31.1666 40.8851 30.385 41.6667 29.4166 41.6667ZM34.6666 37.0001H24.1666V20.6667H34.6666V37.0001Z" fill="#0BCE5A"/>
</svg>
