<svg width="10" height="9" viewBox="0 0 10 9" fill="none" xmlns="http://www.w3.org/2000/svg">
<path d="M8.61067 0.743485L8.61067 -0.00651489L9.36067 -0.00651493L9.36067 0.743485L8.61067 0.743485ZM1.62799 8.78682C1.3351 9.07972 0.860227 9.07972 0.567334 8.78682C0.27444 8.49393 0.274441 8.01906 0.567334 7.72616L1.09766 8.25649L1.62799 8.78682ZM2.60027 0.743485L2.60027 -0.00651536L8.61067 -0.00651489L8.61067 0.743485L8.61067 1.49349L2.60027 1.49348L2.60027 0.743485ZM8.61067 0.743485L9.36067 0.743485L9.36067 6.75389L8.61067 6.75389H7.86067L7.86067 0.743485L8.61067 0.743485ZM8.61067 0.743485L9.141 1.27382L1.62799 8.78682L1.09766 8.25649L0.567334 7.72616L8.08034 0.213155L8.61067 0.743485Z" fill="#0AB951"/>
</svg>
