<svg width="1440" height="105" viewBox="0 0 1440 105" fill="none" xmlns="http://www.w3.org/2000/svg">
<path d="M14.7791 103.895C8.03538 103.372 4.93941 97.9287 4.05789 95.5584C2.99399 92.6976 -0.443364 79.1294 0.0477073 64.3352C1.42263 55.1154 7.41339 55.7529 12.4875 56.4068L43.5052 61.311C49.2341 62.2373 60.921 64.139 61.8376 64.3352C67.5664 65.2343 71.5766 68.5855 72.1495 69.0759C78.2876 74.5522 77.4692 82.3989 77.4692 83.3797C77.4692 94.2342 64.0473 99.073 57.3363 100.136L52.9169 100.789L38.2674 102.506C33.166 102.969 21.3263 103.895 14.7791 103.895Z" stroke="#0BCE5A" stroke-width="2"/>
<path d="M102.729 103.895C95.9848 103.372 92.8889 97.9287 92.0074 95.5584C90.9434 92.6976 87.5061 79.1294 87.9972 64.3352C89.3721 55.1154 95.3629 55.7529 100.437 56.4068L131.455 61.311C137.184 62.2373 148.87 64.139 149.787 64.3352C155.516 65.2343 159.526 68.5855 160.099 69.0759C166.237 74.5522 165.419 82.3989 165.419 83.3797C165.419 94.2342 151.997 99.073 145.286 100.136L140.866 100.789L126.217 102.506C121.115 102.969 109.276 103.895 102.729 103.895Z" stroke="#0BCE5A" stroke-width="2"/>
<path d="M190.678 103.895C183.934 103.372 180.838 97.9287 179.957 95.5584C178.893 92.6976 175.456 79.1294 175.947 64.3352C177.322 55.1154 183.312 55.7529 188.386 56.4068L219.404 61.311C225.133 62.2373 236.82 64.139 237.736 64.3352C243.465 65.2343 247.476 68.5855 248.048 69.0759C254.186 74.5522 253.368 82.3989 253.368 83.3797C253.368 94.2342 239.946 99.073 233.235 100.136L228.816 100.789L214.166 102.506C209.065 102.969 197.225 103.895 190.678 103.895Z" stroke="#0BCE5A" stroke-width="2"/>
<path d="M278.627 103.895C271.884 103.372 268.788 97.9287 267.906 95.5584C266.842 92.6976 263.405 79.1294 263.896 64.3352C265.271 55.1154 271.262 55.7529 276.336 56.4068L307.354 61.311C313.082 62.2373 324.769 64.139 325.686 64.3352C331.415 65.2343 335.425 68.5855 335.998 69.0759C342.136 74.5522 341.318 82.3989 341.318 83.3797C341.318 94.2342 327.896 99.073 321.185 100.136L316.765 100.789L302.116 102.506C297.014 102.969 285.175 103.895 278.627 103.895Z" stroke="#0BCE5A" stroke-width="2"/>
<path d="M366.577 103.895C359.833 103.372 356.737 97.9287 355.856 95.5584C354.792 92.6976 351.354 79.1294 351.846 64.3352C353.22 55.1154 359.211 55.7529 364.285 56.4068L395.303 61.311C401.032 62.2373 412.719 64.139 413.635 64.3352C419.364 65.2343 423.374 68.5855 423.947 69.0759C430.085 74.5522 429.267 82.3989 429.267 83.3797C429.267 94.2342 415.845 99.073 409.134 100.136L404.715 100.789L390.065 102.506C384.964 102.969 373.124 103.895 366.577 103.895Z" stroke="#0BCE5A" stroke-width="2"/>
<path d="M454.526 103.895C447.783 103.372 444.687 97.9287 443.805 95.5584C442.741 92.6976 439.304 79.1294 439.795 64.3352C441.17 55.1154 447.161 55.7529 452.235 56.4068L483.252 61.311C488.981 62.2373 500.668 64.139 501.585 64.3352C507.314 65.2343 511.324 68.5855 511.897 69.0759C518.035 74.5522 517.216 82.3989 517.216 83.3797C517.216 94.2342 503.795 99.073 497.084 100.136L492.664 100.789L478.015 102.506C472.913 102.969 461.074 103.895 454.526 103.895Z" stroke="#0BCE5A" stroke-width="2"/>
<path d="M542.476 103.895C535.732 103.372 532.636 97.9287 531.755 95.5584C530.691 92.6976 527.253 79.1294 527.744 64.3352C529.119 55.1154 535.11 55.7529 540.184 56.4068L571.202 61.311C576.931 62.2373 588.618 64.139 589.534 64.3352C595.263 65.2343 599.273 68.5855 599.846 69.0759C605.984 74.5522 605.166 82.3989 605.166 83.3797C605.166 94.2342 591.744 99.073 585.033 100.136L580.614 100.789L565.964 102.506C560.863 102.969 549.023 103.895 542.476 103.895Z" stroke="#0BCE5A" stroke-width="2"/>
<path d="M630.425 103.895C623.682 103.372 620.586 97.9287 619.704 95.5584C618.64 92.6976 615.203 79.1294 615.694 64.3352C617.069 55.1154 623.06 55.7529 628.134 56.4068L659.151 61.311C664.88 62.2373 676.567 64.139 677.484 64.3352C683.213 65.2343 687.223 68.5855 687.796 69.0759C693.934 74.5522 693.115 82.3989 693.115 83.3797C693.115 94.2342 679.693 99.073 672.982 100.136L668.563 100.789L653.914 102.506C648.812 102.969 636.973 103.895 630.425 103.895Z" stroke="#0BCE5A" stroke-width="2"/>
<path d="M718.375 103.895C711.631 103.372 708.535 97.9287 707.654 95.5584C706.59 92.6976 703.152 79.1294 703.643 64.3352C705.018 55.1154 711.009 55.7529 716.083 56.4068L747.101 61.311C752.83 62.2373 764.517 64.139 765.433 64.3352C771.162 65.2343 775.172 68.5855 775.745 69.0759C781.883 74.5522 781.065 82.3989 781.065 83.3797C781.065 94.2342 767.643 99.073 760.932 100.136L756.513 100.789L741.863 102.506C736.762 102.969 724.922 103.895 718.375 103.895Z" stroke="#0BCE5A" stroke-width="2"/>
<path d="M806.324 103.895C799.58 103.372 796.485 97.9287 795.603 95.5584C794.539 92.6976 791.102 79.1294 791.593 64.3352C792.968 55.1154 798.958 55.7529 804.033 56.4068L835.05 61.311C840.779 62.2373 852.466 64.139 853.383 64.3352C859.112 65.2343 863.122 68.5855 863.695 69.0759C869.833 74.5522 869.014 82.3989 869.014 83.3797C869.014 94.2342 855.592 99.073 848.881 100.136L844.462 100.789L829.812 102.506C824.711 102.969 812.871 103.895 806.324 103.895Z" stroke="#0BCE5A" stroke-width="2"/>
<path d="M894.274 103.895C887.53 103.372 884.434 97.9287 883.552 95.5584C882.489 92.6976 879.051 79.1294 879.542 64.3352C880.917 55.1154 886.908 55.7529 891.982 56.4068L923 61.311C928.729 62.2373 940.416 64.139 941.332 64.3352C947.061 65.2343 951.071 68.5855 951.644 69.0759C957.782 74.5522 956.964 82.3989 956.964 83.3797C956.964 94.2342 943.542 99.073 936.831 100.136L932.411 100.789L917.762 102.506C912.661 102.969 900.821 103.895 894.274 103.895Z" stroke="#0BCE5A" stroke-width="2"/>
<path d="M942.221 1.10455C948.965 1.62766 952.061 7.07129 952.942 9.44163C954.006 12.3024 957.443 25.8706 956.952 40.6648C955.577 49.8846 949.587 49.2471 944.512 48.5932L913.495 43.689C907.766 42.7627 896.079 40.861 895.162 40.6648C889.434 39.7657 885.423 36.4145 884.85 35.9241C878.712 30.4478 879.531 22.6011 879.531 21.6203C879.531 10.7658 892.953 5.92698 899.664 4.86441L904.083 4.21052L918.733 2.49407C923.834 2.0309 935.674 1.10455 942.221 1.10455Z" stroke="#0BCE5A" stroke-width="2"/>
<path d="M854.271 1.10455C861.015 1.62766 864.111 7.07129 864.993 9.44163C866.057 12.3024 869.494 25.8706 869.003 40.6648C867.628 49.8846 861.637 49.2471 856.563 48.5932L825.545 43.689C819.816 42.7627 808.13 40.861 807.213 40.6648C801.484 39.7657 797.474 36.4145 796.901 35.9241C790.763 30.4478 791.581 22.6011 791.581 21.6203C791.581 10.7658 805.003 5.92698 811.714 4.86441L816.134 4.21052L830.783 2.49407C835.885 2.0309 847.724 1.10455 854.271 1.10455Z" stroke="#0BCE5A" stroke-width="2"/>
<path d="M766.322 1.10455C773.066 1.62766 776.162 7.07129 777.043 9.44163C778.107 12.3024 781.544 25.8706 781.053 40.6648C779.678 49.8846 773.688 49.2471 768.614 48.5932L737.596 43.689C731.867 42.7627 720.18 40.861 719.264 40.6648C713.535 39.7657 709.524 36.4145 708.952 35.9241C702.813 30.4478 703.632 22.6011 703.632 21.6203C703.632 10.7658 717.054 5.92698 723.765 4.86441L728.184 4.21052L742.834 2.49407C747.935 2.0309 759.775 1.10455 766.322 1.10455Z" stroke="#0BCE5A" stroke-width="2"/>
<path d="M678.373 1.10455C685.116 1.62766 688.212 7.07129 689.094 9.44163C690.158 12.3024 693.595 25.8706 693.104 40.6648C691.729 49.8846 685.738 49.2471 680.664 48.5932L649.646 43.689C643.918 42.7627 632.231 40.861 631.314 40.6648C625.585 39.7657 621.575 36.4145 621.002 35.9241C614.864 30.4478 615.682 22.6011 615.682 21.6203C615.682 10.7658 629.104 5.92698 635.815 4.86441L640.235 4.21052L654.884 2.49407C659.986 2.0309 671.825 1.10455 678.373 1.10455Z" stroke="#0BCE5A" stroke-width="2"/>
<path d="M590.423 1.10455C597.167 1.62766 600.263 7.07129 601.144 9.44163C602.208 12.3024 605.646 25.8706 605.154 40.6648C603.78 49.8846 597.789 49.2471 592.715 48.5932L561.697 43.689C555.968 42.7627 544.281 40.861 543.365 40.6648C537.636 39.7657 533.626 36.4145 533.053 35.9241C526.915 30.4478 527.733 22.6011 527.733 21.6203C527.733 10.7658 541.155 5.92698 547.866 4.86441L552.285 4.21052L566.935 2.49407C572.036 2.0309 583.876 1.10455 590.423 1.10455Z" stroke="#0BCE5A" stroke-width="2"/>
<path d="M502.474 1.10455C509.217 1.62766 512.313 7.07129 513.195 9.44163C514.259 12.3024 517.696 25.8706 517.205 40.6648C515.83 49.8846 509.839 49.2471 504.765 48.5932L473.747 43.689C468.019 42.7627 456.332 40.861 455.415 40.6648C449.686 39.7657 445.676 36.4145 445.103 35.9241C438.965 30.4478 439.784 22.6011 439.784 21.6203C439.784 10.7658 453.205 5.92698 459.916 4.86441L464.336 4.21052L478.985 2.49407C484.087 2.0309 495.926 1.10455 502.474 1.10455Z" stroke="#0BCE5A" stroke-width="2"/>
<path d="M414.524 1.10455C421.268 1.62766 424.364 7.07129 425.245 9.44163C426.309 12.3024 429.747 25.8706 429.256 40.6648C427.881 49.8846 421.89 49.2471 416.816 48.5932L385.798 43.689C380.069 42.7627 368.382 40.861 367.466 40.6648C361.737 39.7657 357.727 36.4145 357.154 35.9241C351.016 30.4478 351.834 22.6011 351.834 21.6203C351.834 10.7658 365.256 5.92698 371.967 4.86441L376.386 4.21052L391.036 2.49407C396.137 2.0309 407.977 1.10455 414.524 1.10455Z" stroke="#0BCE5A" stroke-width="2"/>
<path d="M326.575 1.10455C333.318 1.62766 336.414 7.07129 337.296 9.44163C338.36 12.3024 341.797 25.8706 341.306 40.6648C339.931 49.8846 333.94 49.2471 328.866 48.5932L297.849 43.689C292.12 42.7627 280.433 40.861 279.516 40.6648C273.787 39.7657 269.777 36.4145 269.204 35.9241C263.066 30.4478 263.885 22.6011 263.885 21.6203C263.885 10.7658 277.307 5.92698 284.018 4.86441L288.437 4.21052L303.086 2.49407C308.188 2.0309 320.027 1.10455 326.575 1.10455Z" stroke="#0BCE5A" stroke-width="2"/>
<path d="M238.625 1.10455C245.369 1.62766 248.465 7.07129 249.346 9.44163C250.41 12.3024 253.848 25.8706 253.357 40.6648C251.982 49.8846 245.991 49.2471 240.917 48.5932L209.899 43.689C204.17 42.7627 192.483 40.861 191.567 40.6648C185.838 39.7657 181.828 36.4145 181.255 35.9241C175.117 30.4478 175.935 22.6011 175.935 21.6203C175.935 10.7658 189.357 5.92698 196.068 4.86441L200.487 4.21052L215.137 2.49407C220.238 2.0309 232.078 1.10455 238.625 1.10455Z" stroke="#0BCE5A" stroke-width="2"/>
<path d="M150.676 1.10455C157.42 1.62766 160.515 7.07129 161.397 9.44163C162.461 12.3024 165.898 25.8706 165.407 40.6648C164.032 49.8846 158.042 49.2471 152.967 48.5932L121.95 43.689C116.221 42.7627 104.534 40.861 103.617 40.6648C97.8885 39.7657 93.8783 36.4145 93.3054 35.9241C87.1673 30.4478 87.9857 22.6011 87.9857 21.6203C87.9857 10.7658 101.408 5.92698 108.119 4.86441L112.538 4.21052L127.188 2.49407C132.289 2.0309 144.129 1.10455 150.676 1.10455Z" stroke="#0BCE5A" stroke-width="2"/>
<path d="M62.7264 1.10455C69.4701 1.62766 72.566 7.07129 73.4475 9.44163C74.5114 12.3024 77.9488 25.8706 77.4577 40.6648C76.0828 49.8846 70.092 49.2471 65.0179 48.5932L34.0002 43.689C28.2714 42.7627 16.5845 40.861 15.6679 40.6648C9.939 39.7657 5.9288 36.4145 5.35591 35.9241C-0.78215 30.4478 0.0362549 22.6011 0.0362549 21.6203C0.0362549 10.7658 13.4582 5.92698 20.1691 4.86441L24.5885 4.21052L39.238 2.49407C44.3395 2.0309 56.1791 1.10455 62.7264 1.10455Z" stroke="#0BCE5A" stroke-width="2"/>
<path d="M985.779 103.895C979.035 103.372 975.939 97.9287 975.058 95.5584C973.994 92.6976 970.557 79.1294 971.048 64.3352C972.423 55.1154 978.413 55.7529 983.488 56.4068L1014.51 61.311C1020.23 62.2373 1031.92 64.139 1032.84 64.3352C1038.57 65.2343 1042.58 68.5855 1043.15 69.0759C1049.29 74.5522 1048.47 82.3989 1048.47 83.3797C1048.47 94.2342 1035.05 99.073 1028.34 100.136L1023.92 100.789L1009.27 102.506C1004.17 102.969 992.326 103.895 985.779 103.895Z" stroke="#0BCE5A" stroke-width="2"/>
<path d="M1073.73 103.895C1066.98 103.372 1063.89 97.9287 1063.01 95.5584C1061.94 92.6976 1058.51 79.1294 1059 64.3352C1060.37 55.1154 1066.36 55.7529 1071.44 56.4068L1102.45 61.311C1108.18 62.2373 1119.87 64.139 1120.79 64.3352C1126.52 65.2343 1130.53 68.5855 1131.1 69.0759C1137.24 74.5522 1136.42 82.3989 1136.42 83.3797C1136.42 94.2342 1123 99.073 1116.29 100.136L1111.87 100.789L1097.22 102.506C1092.12 102.969 1080.28 103.895 1073.73 103.895Z" stroke="#0BCE5A" stroke-width="2"/>
<path d="M1161.68 103.895C1154.93 103.372 1151.84 97.9287 1150.96 95.5584C1149.89 92.6976 1146.46 79.1294 1146.95 64.3352C1148.32 55.1154 1154.31 55.7529 1159.39 56.4068L1190.4 61.311C1196.13 62.2373 1207.82 64.139 1208.74 64.3352C1214.47 65.2343 1218.48 68.5855 1219.05 69.0759C1225.19 74.5522 1224.37 82.3989 1224.37 83.3797C1224.37 94.2342 1210.95 99.073 1204.24 100.136L1199.82 100.789L1185.17 102.506C1180.06 102.969 1168.23 103.895 1161.68 103.895Z" stroke="#0BCE5A" stroke-width="2"/>
<path d="M1249.63 103.895C1242.88 103.372 1239.79 97.9287 1238.91 95.5584C1237.84 92.6976 1234.41 79.1294 1234.9 64.3352C1236.27 55.1154 1242.26 55.7529 1247.34 56.4068L1278.35 61.311C1284.08 62.2373 1295.77 64.139 1296.69 64.3352C1302.41 65.2343 1306.43 68.5855 1307 69.0759C1313.14 74.5522 1312.32 82.3989 1312.32 83.3797C1312.32 94.2342 1298.9 99.073 1292.18 100.136L1287.77 100.789L1273.12 102.506C1268.01 102.969 1256.17 103.895 1249.63 103.895Z" stroke="#0BCE5A" stroke-width="2"/>
<path d="M1337.58 103.895C1330.83 103.372 1327.74 97.9287 1326.86 95.5584C1325.79 92.6976 1322.35 79.1294 1322.85 64.3352C1324.22 55.1154 1330.21 55.7529 1335.29 56.4068L1366.3 61.311C1372.03 62.2373 1383.72 64.139 1384.64 64.3352C1390.36 65.2343 1394.37 68.5855 1394.95 69.0759C1401.09 74.5522 1400.27 82.3989 1400.27 83.3797C1400.27 94.2342 1386.85 99.073 1380.13 100.136L1375.71 100.789L1361.07 102.506C1355.96 102.969 1344.12 103.895 1337.58 103.895Z" stroke="#0BCE5A" stroke-width="2"/>
<path d="M1425.53 103.895C1418.78 103.372 1415.69 97.9287 1414.81 95.5584C1413.74 92.6976 1410.3 79.1294 1410.8 64.3352C1412.17 55.1154 1418.16 55.7529 1423.23 56.4068L1454.25 61.311C1459.98 62.2373 1471.67 64.139 1472.58 64.3352C1478.31 65.2343 1482.32 68.5855 1482.9 69.0759C1489.03 74.5522 1488.22 82.3989 1488.22 83.3797C1488.22 94.2342 1474.79 99.073 1468.08 100.136L1463.66 100.789L1449.01 102.506C1443.91 102.969 1432.07 103.895 1425.53 103.895Z" stroke="#0BCE5A" stroke-width="2"/>
<path d="M1473.47 1.10455C1480.22 1.62766 1483.31 7.07129 1484.19 9.44163C1485.26 12.3024 1488.7 25.8706 1488.2 40.6648C1486.83 49.8846 1480.84 49.2471 1475.77 48.5932L1444.75 43.689C1439.02 42.7627 1427.33 40.861 1426.42 40.6648C1420.69 39.7657 1416.68 36.4145 1416.1 35.9241C1409.97 30.4478 1410.78 22.6011 1410.78 21.6203C1410.78 10.7658 1424.21 5.92698 1430.92 4.86441L1435.34 4.21052L1449.99 2.49407C1455.09 2.0309 1466.93 1.10455 1473.47 1.10455Z" stroke="#0BCE5A" stroke-width="2"/>
<path d="M1385.52 1.10455C1392.27 1.62766 1395.36 7.07129 1396.25 9.44163C1397.31 12.3024 1400.75 25.8706 1400.26 40.6648C1398.88 49.8846 1392.89 49.2471 1387.82 48.5932L1356.8 43.689C1351.07 42.7627 1339.38 40.861 1338.47 40.6648C1332.74 39.7657 1328.73 36.4145 1328.15 35.9241C1322.02 30.4478 1322.83 22.6011 1322.83 21.6203C1322.83 10.7658 1336.26 5.92698 1342.97 4.86441L1347.39 4.21052L1362.04 2.49407C1367.14 2.0309 1378.98 1.10455 1385.52 1.10455Z" stroke="#0BCE5A" stroke-width="2"/>
<path d="M1297.57 1.10455C1304.32 1.62766 1307.41 7.07129 1308.3 9.44163C1309.36 12.3024 1312.8 25.8706 1312.31 40.6648C1310.93 49.8846 1304.94 49.2471 1299.87 48.5932L1268.85 43.689C1263.12 42.7627 1251.43 40.861 1250.52 40.6648C1244.79 39.7657 1240.78 36.4145 1240.2 35.9241C1234.07 30.4478 1234.88 22.6011 1234.88 21.6203C1234.88 10.7658 1248.31 5.92698 1255.02 4.86441L1259.44 4.21052L1274.09 2.49407C1279.19 2.0309 1291.03 1.10455 1297.57 1.10455Z" stroke="#0BCE5A" stroke-width="2"/>
<path d="M1209.63 1.10455C1216.37 1.62766 1219.46 7.07129 1220.35 9.44163C1221.41 12.3024 1224.85 25.8706 1224.36 40.6648C1222.98 49.8846 1216.99 49.2471 1211.92 48.5932L1180.9 43.689C1175.17 42.7627 1163.48 40.861 1162.57 40.6648C1156.84 39.7657 1152.83 36.4145 1152.25 35.9241C1146.12 30.4478 1146.94 22.6011 1146.94 21.6203C1146.94 10.7658 1160.36 5.92698 1167.07 4.86441L1171.49 4.21052L1186.14 2.49407C1191.24 2.0309 1203.08 1.10455 1209.63 1.10455Z" stroke="#0BCE5A" stroke-width="2"/>
<path d="M1121.68 1.10455C1128.42 1.62766 1131.52 7.07129 1132.4 9.44163C1133.46 12.3024 1136.9 25.8706 1136.41 40.6648C1135.03 49.8846 1129.04 49.2471 1123.97 48.5932L1092.95 43.689C1087.22 42.7627 1075.53 40.861 1074.62 40.6648C1068.89 39.7657 1064.88 36.4145 1064.31 35.9241C1058.17 30.4478 1058.99 22.6011 1058.99 21.6203C1058.99 10.7658 1072.41 5.92698 1079.12 4.86441L1083.54 4.21052L1098.19 2.49407C1103.29 2.0309 1115.13 1.10455 1121.68 1.10455Z" stroke="#0BCE5A" stroke-width="2"/>
<path d="M1033.73 1.10455C1040.47 1.62766 1043.57 7.07129 1044.45 9.44163C1045.51 12.3024 1048.95 25.8706 1048.46 40.6648C1047.08 49.8846 1041.09 49.2471 1036.02 48.5932L1005 43.689C999.271 42.7627 987.584 40.861 986.668 40.6648C980.939 39.7657 976.929 36.4145 976.356 35.9241C970.218 30.4478 971.036 22.6011 971.036 21.6203C971.036 10.7658 984.458 5.92698 991.169 4.86441L995.588 4.21052L1010.24 2.49407C1015.34 2.0309 1027.18 1.10455 1033.73 1.10455Z" stroke="#0BCE5A" stroke-width="2"/>
</svg>
