<svg width="22" height="22" viewBox="0 0 22 22" fill="none" xmlns="http://www.w3.org/2000/svg">
<g opacity="0.2">
<path d="M10.4421 0.727421C10.5427 0.664016 10.6593 0.630371 10.7782 0.630371C10.8972 0.630371 11.0137 0.664016 11.1144 0.727421L20.9452 6.91932C21.48 7.2561 21.2416 8.08354 20.6084 8.08354H0.946728C0.313536 8.08354 0.0751435 7.2561 0.60995 6.91932L10.4421 0.727421Z" fill="#0BCE5A"/>
<path fill-rule="evenodd" clip-rule="evenodd" d="M10.778 3.49744L7.50105 5.56099H14.055L10.778 3.49744ZM11.1148 0.727544C11.0141 0.664138 10.8976 0.630493 10.7786 0.630493C10.6597 0.630493 10.5431 0.664138 10.4425 0.727544L0.610367 6.91945C0.0755605 7.25622 0.313953 8.08366 0.947145 8.08366H20.6089C21.2421 8.08366 21.4804 7.25622 20.9456 6.91945L11.1148 0.727544ZM0.0566406 20.0664C0.0566406 19.7318 0.189531 19.411 0.426078 19.1745C0.662624 18.9379 0.98345 18.805 1.31798 18.805H20.238C20.5726 18.805 20.8934 18.9379 21.1299 19.1745C21.3665 19.411 21.4994 19.7318 21.4994 20.0664C21.4994 20.4009 21.3665 20.7217 21.1299 20.9583C20.8934 21.1948 20.5726 21.3277 20.238 21.3277H1.31798C0.98345 21.3277 0.662624 21.1948 0.426078 20.9583C0.189531 20.7217 0.0566406 20.4009 0.0566406 20.0664ZM3.20998 9.345C3.54451 9.345 3.86534 9.47789 4.10188 9.71443C4.33843 9.95098 4.47132 10.2718 4.47132 10.6063V16.913C4.47132 17.2475 4.33843 17.5684 4.10188 17.8049C3.86534 18.0415 3.54451 18.1744 3.20998 18.1744C2.87546 18.1744 2.55463 18.0415 2.31808 17.8049C2.08154 17.5684 1.94865 17.2475 1.94865 16.913V10.6063C1.94865 10.2718 2.08154 9.95098 2.31808 9.71443C2.55463 9.47789 2.87546 9.345 3.20998 9.345ZM6.99399 9.345C7.32852 9.345 7.64935 9.47789 7.88589 9.71443C8.12244 9.95098 8.25533 10.2718 8.25533 10.6063V16.913C8.25533 17.2475 8.12244 17.5684 7.88589 17.8049C7.64935 18.0415 7.32852 18.1744 6.99399 18.1744C6.65947 18.1744 6.33864 18.0415 6.10209 17.8049C5.86555 17.5684 5.73266 17.2475 5.73266 16.913V10.6063C5.73266 10.2718 5.86555 9.95098 6.10209 9.71443C6.33864 9.47789 6.65947 9.345 6.99399 9.345ZM10.778 9.345C11.1125 9.345 11.4334 9.47789 11.6699 9.71443C11.9064 9.95098 12.0393 10.2718 12.0393 10.6063V16.913C12.0393 17.2475 11.9064 17.5684 11.6699 17.8049C11.4334 18.0415 11.1125 18.1744 10.778 18.1744C10.4435 18.1744 10.1227 18.0415 9.8861 17.8049C9.64956 17.5684 9.51667 17.2475 9.51667 16.913V10.6063C9.51667 10.2718 9.64956 9.95098 9.8861 9.71443C10.1227 9.47789 10.4435 9.345 10.778 9.345ZM14.562 9.345C14.8965 9.345 15.2174 9.47789 15.4539 9.71443C15.6905 9.95098 15.8234 10.2718 15.8234 10.6063V16.913C15.8234 17.2475 15.6905 17.5684 15.4539 17.8049C15.2174 18.0415 14.8965 18.1744 14.562 18.1744C14.2275 18.1744 13.9067 18.0415 13.6701 17.8049C13.4336 17.5684 13.3007 17.2475 13.3007 16.913V10.6063C13.3007 10.2718 13.4336 9.95098 13.6701 9.71443C13.9067 9.47789 14.2275 9.345 14.562 9.345ZM18.346 9.345C18.6806 9.345 19.0014 9.47789 19.2379 9.71443C19.4745 9.95098 19.6074 10.2718 19.6074 10.6063V16.913C19.6074 17.2475 19.4745 17.5684 19.2379 17.8049C19.0014 18.0415 18.6806 18.1744 18.346 18.1744C18.0115 18.1744 17.6907 18.0415 17.4541 17.8049C17.2176 17.5684 17.0847 17.2475 17.0847 16.913V10.6063C17.0847 10.2718 17.2176 9.95098 17.4541 9.71443C17.6907 9.47789 18.0115 9.345 18.346 9.345Z" fill="#0BCE5A"/>
</g>
<path fill-rule="evenodd" clip-rule="evenodd" d="M10.4631 1.37605L2.81691 6.19183H18.1094L10.4631 1.37605ZM10.7999 0.0970502C10.6993 0.0336449 10.5827 0 10.4638 0C10.3448 0 10.2283 0.0336449 10.1276 0.0970502L0.295497 6.28895C-0.23931 6.62573 -0.000916764 7.45317 0.632274 7.45317H20.294C20.9272 7.45317 21.1656 6.62573 20.6308 6.28895L10.7999 0.0970502ZM0.372439 19.4359C0.372439 19.2686 0.438884 19.1082 0.557157 18.9899C0.675431 18.8716 0.835844 18.8052 1.00311 18.8052H19.9232C20.0904 18.8052 20.2508 18.8716 20.3691 18.9899C20.4874 19.1082 20.5538 19.2686 20.5538 19.4359C20.5538 19.6031 20.4874 19.7635 20.3691 19.8818C20.2508 20.0001 20.0904 20.0665 19.9232 20.0665H1.00311C0.835844 20.0665 0.675431 20.0001 0.557157 19.8818C0.438884 19.7635 0.372439 19.6031 0.372439 19.4359ZM2.26444 8.7145C2.43171 8.7145 2.59212 8.78095 2.71039 8.89922C2.82867 9.01749 2.89511 9.17791 2.89511 9.34517V16.9132C2.89511 17.0805 2.82867 17.2409 2.71039 17.3591C2.59212 17.4774 2.43171 17.5439 2.26444 17.5439C2.09718 17.5439 1.93677 17.4774 1.81849 17.3591C1.70022 17.2409 1.63378 17.0805 1.63378 16.9132V9.34517C1.63378 9.17791 1.70022 9.01749 1.81849 8.89922C1.93677 8.78095 2.09718 8.7145 2.26444 8.7145ZM6.04846 8.7145C6.21572 8.7145 6.37613 8.78095 6.49441 8.89922C6.61268 9.01749 6.67912 9.17791 6.67912 9.34517V16.9132C6.67912 17.0805 6.61268 17.2409 6.49441 17.3591C6.37613 17.4774 6.21572 17.5439 6.04846 17.5439C5.88119 17.5439 5.72078 17.4774 5.60251 17.3591C5.48423 17.2409 5.41779 17.0805 5.41779 16.9132V9.34517C5.41779 9.17791 5.48423 9.01749 5.60251 8.89922C5.72078 8.78095 5.88119 8.7145 6.04846 8.7145ZM9.83247 8.7145C9.99973 8.7145 10.1601 8.78095 10.2784 8.89922C10.3967 9.01749 10.4631 9.17791 10.4631 9.34517V16.9132C10.4631 17.0805 10.3967 17.2409 10.2784 17.3591C10.1601 17.4774 9.99973 17.5439 9.83247 17.5439C9.6652 17.5439 9.50479 17.4774 9.38652 17.3591C9.26824 17.2409 9.2018 17.0805 9.2018 16.9132V9.34517C9.2018 9.17791 9.26824 9.01749 9.38652 8.89922C9.50479 8.78095 9.6652 8.7145 9.83247 8.7145ZM13.6165 8.7145C13.7837 8.7145 13.9442 8.78095 14.0624 8.89922C14.1807 9.01749 14.2471 9.17791 14.2471 9.34517V16.9132C14.2471 17.0805 14.1807 17.2409 14.0624 17.3591C13.9442 17.4774 13.7837 17.5439 13.6165 17.5439C13.4492 17.5439 13.2888 17.4774 13.1705 17.3591C13.0523 17.2409 12.9858 17.0805 12.9858 16.9132V9.34517C12.9858 9.17791 13.0523 9.01749 13.1705 8.89922C13.2888 8.78095 13.4492 8.7145 13.6165 8.7145ZM17.4005 8.7145C17.5678 8.7145 17.7282 8.78095 17.8464 8.89922C17.9647 9.01749 18.0312 9.17791 18.0312 9.34517V16.9132C18.0312 17.0805 17.9647 17.2409 17.8464 17.3591C17.7282 17.4774 17.5678 17.5439 17.4005 17.5439C17.2332 17.5439 17.0728 17.4774 16.9545 17.3591C16.8363 17.2409 16.7698 17.0805 16.7698 16.9132V9.34517C16.7698 9.17791 16.8363 9.01749 16.9545 8.89922C17.0728 8.78095 17.2332 8.7145 17.4005 8.7145Z" fill="#0BCE5A"/>
</svg>
