<svg width="213" height="54" viewBox="0 0 213 54" fill="none" xmlns="http://www.w3.org/2000/svg">
<path d="M26.5859 0C41.269 0 53.1727 11.9029 53.1729 26.5859C53.1729 41.2691 41.2691 53.1729 26.5859 53.1729C11.9029 53.1727 0 41.269 0 26.5859C0.000132973 11.903 11.903 0.000132981 26.5859 0ZM39.0488 27.2754C36.7322 26.2865 30.0155 27.1675 26.9463 27.7314L20.7314 28.707C19.3214 28.9131 15.8249 29.4684 13.1182 30.041C10.4117 30.6138 9.58283 33.5978 9.50684 35.0186C9.33332 36.3959 8.98633 39.307 8.98633 39.9316C9.19455 44.0441 12.8258 44.9858 14.6152 44.9424H33.876C34.6242 44.9532 36.3611 44.955 37.3242 44.877C39.5713 44.4917 40.8054 43.5048 41.4629 42.9785L41.4893 42.957C43.8316 40.8423 44.1244 38.4024 44.2871 37.3613C44.5128 34.3946 43.684 32.3226 43.3525 31.4941L43.3438 31.4727C41.6845 27.9263 39.6019 27.5031 39.0488 27.2754ZM16.7305 8.14453C14.0496 8.35276 12.8182 10.5204 12.4678 11.4639C12.0447 12.6035 10.6789 18.0036 10.874 23.8916C11.4206 27.5616 13.8022 27.3081 15.8193 27.0479L28.1494 25.0957C30.4265 24.727 35.072 23.9699 35.4375 23.8916C37.7148 23.5337 39.3092 22.2002 39.5371 22.0049C41.9766 19.8256 41.6525 16.7033 41.6523 16.3115C41.6523 11.991 36.3164 10.0646 33.6484 9.6416L31.8916 9.38086L26.0674 8.69824C24.0394 8.51388 19.3333 8.14457 16.7305 8.14453Z" fill="#0BCE5A"/>
<path d="M72.5478 20.5913C74.348 20.5913 75.9878 21.029 77.4674 21.9044C78.947 22.7798 80.1245 23.9573 80.9999 25.4369C81.8753 26.9041 82.313 28.5317 82.313 30.3195C82.313 31.6635 82.0603 32.9273 81.5548 34.1109C81.0492 35.2946 80.3464 36.3365 79.4464 37.2365C78.5586 38.1243 77.5229 38.8209 76.3392 39.3264C75.1679 39.832 73.9041 40.0847 72.5478 40.0847C71.3888 40.0847 70.3593 39.8258 69.4592 39.3079C68.5715 38.7778 67.8255 38.0935 67.2213 37.255V39.6039H62.7086V11.8618H67.2213V23.421C67.8255 22.5825 68.5715 21.9044 69.4592 21.3865C70.3593 20.8564 71.3888 20.5913 72.5478 20.5913ZM72.4923 35.72C73.4541 35.72 74.3233 35.4795 75.1001 34.9987C75.8892 34.5055 76.518 33.852 76.9866 33.0382C77.4551 32.2245 77.6894 31.3182 77.6894 30.3195C77.6894 29.3331 77.4551 28.433 76.9866 27.6193C76.518 26.7932 75.8892 26.1397 75.1001 25.6588C74.311 25.178 73.4417 24.9375 72.4923 24.9375C71.5553 24.9375 70.7168 25.1841 69.9771 25.6773C69.2373 26.1582 68.6578 26.8117 68.2385 27.6378C67.8193 28.4515 67.6097 29.3454 67.6097 30.3195C67.6097 31.3182 67.8193 32.2306 68.2385 33.0567C68.6578 33.8705 69.2373 34.5178 69.9771 34.9987C70.7168 35.4795 71.5553 35.72 72.4923 35.72Z" fill="black"/>
<path d="M84.4457 21.1091H88.9584V39.6039H84.4457V21.1091ZM86.7391 18.7233C86.0733 18.7233 85.5122 18.5075 85.056 18.076C84.5998 17.6321 84.3717 17.0773 84.3717 16.4115C84.3717 15.758 84.5998 15.2093 85.056 14.7654C85.5122 14.3216 86.0671 14.0996 86.7206 14.0996C87.374 14.0996 87.9227 14.3216 88.3666 14.7654C88.8228 15.2093 89.0509 15.758 89.0509 16.4115C89.0509 17.0773 88.829 17.6321 88.3851 18.076C87.9412 18.5075 87.3925 18.7233 86.7391 18.7233Z" fill="black"/>
<path d="M93.1065 39.6039V11.8618H97.6192V39.6039H93.1065Z" fill="black"/>
<path d="M101.695 39.6039V11.8618H106.208V39.6039H101.695Z" fill="black"/>
<path d="M120.123 20.5913C121.923 20.5913 123.563 21.029 125.042 21.9044C126.522 22.7798 127.699 23.9573 128.575 25.4369C129.45 26.9041 129.888 28.5317 129.888 30.3195C129.888 31.6635 129.635 32.9273 129.13 34.1109C128.624 35.2946 127.921 36.3365 127.021 37.2365C126.133 38.1243 125.098 38.8209 123.914 39.3264C122.743 39.832 121.479 40.0847 120.123 40.0847C118.964 40.0847 117.934 39.8258 117.034 39.3079C116.146 38.7778 115.4 38.0935 114.796 37.255V39.6039H110.283V11.8618H114.796V23.421C115.4 22.5825 116.146 21.9044 117.034 21.3865C117.934 20.8564 118.964 20.5913 120.123 20.5913ZM120.067 35.72C121.029 35.72 121.898 35.4795 122.675 34.9987C123.464 34.5055 124.093 33.852 124.561 33.0382C125.03 32.2245 125.264 31.3182 125.264 30.3195C125.264 29.3331 125.03 28.433 124.561 27.6193C124.093 26.7932 123.464 26.1397 122.675 25.6588C121.886 25.178 121.017 24.9375 120.067 24.9375C119.13 24.9375 118.292 25.1841 117.552 25.6773C116.812 26.1582 116.233 26.8117 115.813 27.6378C115.394 28.4515 115.185 29.3454 115.185 30.3195C115.185 31.3182 115.394 32.2306 115.813 33.0567C116.233 33.8705 116.812 34.5178 117.552 34.9987C118.292 35.4795 119.13 35.72 120.067 35.72Z" fill="black"/>
<path d="M131.281 32.7608V21.1091H135.793V31.5771C135.793 32.3046 135.972 32.9704 136.33 33.5746C136.687 34.1664 137.162 34.6411 137.754 34.9987C138.358 35.3439 139.018 35.5165 139.733 35.5165C140.473 35.5165 141.138 35.3439 141.73 34.9987C142.322 34.6411 142.797 34.1664 143.154 33.5746C143.512 32.9704 143.691 32.3046 143.691 31.5771V21.1091H148.203L148.222 39.6039H143.709L143.691 37.9208C143.05 38.5867 142.291 39.1168 141.416 39.5114C140.54 39.8936 139.603 40.0847 138.605 40.0847C137.261 40.0847 136.034 39.758 134.924 39.1045C133.815 38.4387 132.927 37.5571 132.261 36.4598C131.607 35.3501 131.281 34.1171 131.281 32.7608Z" fill="black"/>
<path d="M165.247 11.8618H169.76V39.6039H165.247V37.292C164.655 38.1181 163.909 38.7901 163.009 39.3079C162.109 39.8258 161.067 40.0847 159.884 40.0847C158.54 40.0847 157.282 39.832 156.111 39.3264C154.939 38.8209 153.904 38.1243 153.004 37.2365C152.116 36.3365 151.419 35.3008 150.914 34.1294C150.408 32.9581 150.155 31.7004 150.155 30.3565C150.155 29.0125 150.408 27.7549 150.914 26.5836C151.419 25.4122 152.116 24.3827 153.004 23.4949C153.904 22.5949 154.939 21.8921 156.111 21.3865C157.282 20.881 158.54 20.6283 159.884 20.6283C161.067 20.6283 162.109 20.8872 163.009 21.405C163.909 21.9106 164.655 22.5825 165.247 23.421V11.8618ZM159.939 35.7385C160.901 35.7385 161.752 35.498 162.491 35.0172C163.231 34.5363 163.811 33.889 164.23 33.0752C164.649 32.2491 164.859 31.3429 164.859 30.3565C164.859 29.3578 164.649 28.4515 164.23 27.6378C163.811 26.8117 163.225 26.1582 162.473 25.6773C161.733 25.1965 160.889 24.956 159.939 24.956C158.99 24.956 158.121 25.2026 157.331 25.6958C156.555 26.1767 155.932 26.824 155.463 27.6378C155.007 28.4515 154.779 29.3578 154.779 30.3565C154.779 31.3552 155.013 32.2614 155.482 33.0752C155.951 33.889 156.573 34.5363 157.35 35.0172C158.139 35.498 159.002 35.7385 159.939 35.7385Z" fill="black"/>
<path d="M187.526 11.8618H192.039V39.6039H187.526V37.292C186.934 38.1181 186.188 38.7901 185.288 39.3079C184.388 39.8258 183.346 40.0847 182.163 40.0847C180.819 40.0847 179.561 39.832 178.39 39.3264C177.218 38.8209 176.183 38.1243 175.283 37.2365C174.395 36.3365 173.698 35.3008 173.193 34.1294C172.687 32.9581 172.434 31.7004 172.434 30.3565C172.434 29.0125 172.687 27.7549 173.193 26.5836C173.698 25.4122 174.395 24.3827 175.283 23.4949C176.183 22.5949 177.218 21.8921 178.39 21.3865C179.561 20.881 180.819 20.6283 182.163 20.6283C183.346 20.6283 184.388 20.8872 185.288 21.405C186.188 21.9106 186.934 22.5825 187.526 23.421V11.8618ZM182.218 35.7385C183.18 35.7385 184.031 35.498 184.77 35.0172C185.51 34.5363 186.09 33.889 186.509 33.0752C186.928 32.2491 187.138 31.3429 187.138 30.3565C187.138 29.3578 186.928 28.4515 186.509 27.6378C186.09 26.8117 185.504 26.1582 184.752 25.6773C184.012 25.1965 183.168 24.956 182.218 24.956C181.269 24.956 180.399 25.2026 179.61 25.6958C178.834 26.1767 178.211 26.824 177.742 27.6378C177.286 28.4515 177.058 29.3578 177.058 30.3565C177.058 31.3552 177.292 32.2614 177.761 33.0752C178.229 33.889 178.852 34.5363 179.629 35.0172C180.418 35.498 181.281 35.7385 182.218 35.7385Z" fill="black"/>
<path d="M207.535 21.1091H212.325L202.209 48.8512H197.419L200.766 39.6039L194.108 21.1091H199.046L203.022 33.4266L207.535 21.1091Z" fill="black"/>
</svg>
