<svg width="60" height="60" viewBox="0 0 60 60" fill="none" xmlns="http://www.w3.org/2000/svg">
<circle cx="30" cy="30" r="30" fill="black"/>
<path d="M31.8667 34.6667C32.4543 35.4503 33.2737 36.0291 34.2086 36.3211C35.1435 36.6131 36.1465 36.6036 37.0757 36.2939C38.0049 35.9842 38.8131 35.3899 39.3858 34.5953C39.9585 33.8008 40.2667 32.8462 40.2667 31.8667C40.2667 30.8139 39.9045 29.8526 39.3165 29.0723L39.3333 29.0667L30 17.8667L20.6667 29.0667L20.6835 29.0723C20.0704 29.8752 19.7367 30.8565 19.7333 31.8667C19.7333 32.8462 20.0415 33.8008 20.6142 34.5953C21.1869 35.3899 21.9951 35.9842 22.9243 36.2939C23.8535 36.6036 24.8566 36.6131 25.7915 36.3211C26.7264 36.0291 27.5457 35.4503 28.1333 34.6667L29.0667 33.4235V37.4667C29.0667 40.2667 24.4 40.2667 24.4 40.2667C24.1525 40.2667 23.9151 40.365 23.74 40.5401C23.565 40.7151 23.4667 40.9525 23.4667 41.2C23.4667 41.4476 23.565 41.685 23.74 41.86C23.9151 42.035 24.1525 42.1334 24.4 42.1334H35.6C35.8475 42.1334 36.0849 42.035 36.26 41.86C36.435 41.685 36.5333 41.4476 36.5333 41.2C36.5333 40.9525 36.435 40.7151 36.26 40.5401C36.0849 40.365 35.8475 40.2667 35.6 40.2667C35.6 40.2667 30.9333 40.2667 30.9333 37.4667V33.4235L31.8667 34.6667Z" fill="#0BCE5A"/>
</svg>
