<svg width="380" height="398" viewBox="0 0 380 398" fill="none" xmlns="http://www.w3.org/2000/svg">
<path d="M49.0831 206.536C19.9867 212.58 9.92943 248.823 8.53783 266.188C6.12332 282.988 1.2303 318.5 0.974314 326.147C1.50923 376.568 39.837 389.388 58.934 389.496L264.296 396.37C272.27 396.769 290.794 397.416 301.094 396.804C325.216 392.889 338.773 381.242 345.998 375.034L346.283 374.79C372.126 349.736 376.248 319.967 378.409 307.279C382.032 271.04 374.041 245.38 370.847 235.12L370.762 234.849C354.524 190.841 332.496 184.919 326.692 181.934C302.398 168.999 230.415 177.382 197.46 183.191L130.803 192.922C115.687 194.942 78.1794 200.492 49.0831 206.536Z" stroke="#0BCE5A"/>
<path d="M96.5622 -60.2364C67.8926 -58.644 53.882 -32.5559 49.7589 -21.13C44.7827 -7.34012 27.9998 58.2915 27.6681 130.455C31.9921 175.58 57.4888 173.323 79.103 170.856L211.376 151.358C235.81 147.657 285.657 140.048 289.574 139.222C314.003 135.653 331.548 119.891 334.056 117.583C360.967 91.767 358.778 53.4132 358.938 48.6335C360.708 -4.26195 304.607 -29.7461 276.334 -35.8763L257.709 -39.6898L195.894 -50.1327C174.347 -53.1136 124.314 -59.3075 96.5622 -60.2364Z" stroke="#0BCE5A"/>
</svg>
