<svg width="60" height="60" viewBox="0 0 60 60" fill="none" xmlns="http://www.w3.org/2000/svg">
<circle cx="30" cy="30" r="30" fill="black"/>
<path d="M37.4038 16.0144C37.1626 16.0403 36.9372 16.1469 36.7642 16.3169L30 23.0786L26.4666 19.5449C26.3648 19.4432 26.2439 19.3625 26.1109 19.3075C25.9779 19.2525 25.8353 19.2242 25.6914 19.2243C25.5474 19.2243 25.4049 19.2527 25.2719 19.3078C25.139 19.3629 25.0181 19.4437 24.9164 19.5454C24.7109 19.751 24.5955 20.0297 24.5956 20.3203C24.5956 20.4642 24.624 20.6066 24.6792 20.7395C24.7343 20.8724 24.8151 20.9932 24.9169 21.0949L28.4514 24.6254H19.2308C18.3739 24.6254 17.5522 24.9656 16.9463 25.5711C16.3404 26.1767 16 26.9981 16 27.8545V40.7709C16 41.6273 16.3404 42.4486 16.9463 43.0542C17.5522 43.6598 18.3739 44 19.2308 44H40.7692C41.6261 44 42.4478 43.6598 43.0537 43.0542C43.6596 42.4486 44 41.6273 44 40.7709V27.8545C44 26.9981 43.6596 26.1767 43.0537 25.5711C42.4478 24.9656 41.6261 24.6254 40.7692 24.6254H31.5475L38.3128 17.8647C38.4822 17.7072 38.5965 17.4994 38.6385 17.2719C38.6806 17.0445 38.6482 16.8096 38.5462 16.602C38.4442 16.3944 38.278 16.2251 38.0723 16.1193C37.8665 16.0135 37.6321 15.9767 37.4038 16.0144ZM27.3077 26.7781C35.3254 26.7781 36.4615 26.8007 36.4615 34.3127C36.4615 41.8257 35.2468 41.8473 27.3077 41.8473C19.332 41.8473 18.1538 41.7676 18.1538 34.3127C18.1538 26.8599 19.332 26.7781 27.3077 26.7781ZM40.2308 29.9405C41.1634 29.9405 41.914 30.6896 41.914 31.6218C41.9144 31.8428 41.8712 32.0618 41.7867 32.2661C41.7023 32.4704 41.5783 32.656 41.4219 32.8123C41.2656 32.9686 41.0798 33.0925 40.8754 33.1769C40.671 33.2613 40.4519 33.3046 40.2308 33.3041C40.0096 33.3046 39.7905 33.2613 39.5861 33.1769C39.3817 33.0925 39.196 32.9686 39.0396 32.8123C38.8832 32.656 38.7592 32.4704 38.6748 32.2661C38.5904 32.0618 38.5471 31.8428 38.5475 31.6218C38.5471 31.4007 38.5904 31.1818 38.6748 30.9774C38.7592 30.7731 38.8832 30.5875 39.0396 30.4312C39.196 30.2749 39.3817 30.151 39.5861 30.0666C39.7905 29.9822 40.0096 29.94 40.2308 29.9405ZM40.2308 34.2459C41.1634 34.2459 41.914 34.9951 41.914 35.9272C41.9144 36.1483 41.8712 36.3672 41.7867 36.5716C41.7023 36.7759 41.5783 36.9615 41.4219 37.1178C41.2656 37.2741 41.0798 37.398 40.8754 37.4824C40.671 37.5668 40.4519 37.61 40.2308 37.6096C40.0096 37.61 39.7905 37.5668 39.5861 37.4824C39.3817 37.398 39.196 37.2741 39.0396 37.1178C38.8832 36.9615 38.7592 36.7759 38.6748 36.5716C38.5904 36.3672 38.5471 36.1483 38.5475 35.9272C38.5471 35.7062 38.5904 35.4872 38.6748 35.2829C38.7592 35.0786 38.8832 34.893 39.0396 34.7367C39.196 34.5804 39.3817 34.4565 39.5861 34.3721C39.7905 34.2877 40.0096 34.2455 40.2308 34.2459Z" fill="#0BCE5A"/>
</svg>
