<svg width="40" height="40" viewBox="0 0 40 40" fill="none" xmlns="http://www.w3.org/2000/svg">
<path d="M5.39746 16.6369C5.39746 14.9577 6.75877 13.5964 8.43802 13.5964C9.5897 13.5964 10.6425 12.9457 11.1576 11.9156L12.5037 9.22329C13.0295 8.17178 13.2924 7.64603 13.7607 7.34852C13.7746 7.33972 13.7886 7.33108 13.8026 7.32262C14.2782 7.03674 14.866 7.03674 16.0416 7.03674H24.2716C25.4473 7.03674 26.0351 7.03674 26.5106 7.32262C26.5247 7.33108 26.5387 7.33972 26.5525 7.34852C27.0209 7.64603 27.2838 8.17178 27.8095 9.22329L29.1557 11.9156C29.6707 12.9457 30.7236 13.5964 31.8753 13.5964C33.5545 13.5964 34.9158 14.9577 34.9158 16.6369V27.2753C34.9158 30.1037 34.9158 31.5179 34.0371 32.3966C33.1585 33.2753 31.7442 33.2753 28.9158 33.2753H11.3975C8.56903 33.2753 7.15482 33.2753 6.27614 32.3966C5.39746 31.5179 5.39746 30.1037 5.39746 27.2753V16.6369Z" stroke="white" stroke-width="2"/>
<circle cx="20.1563" cy="21.7958" r="5.55963" stroke="white" stroke-width="2"/>
</svg>
