<svg width="60" height="60" viewBox="0 0 60 60" fill="none" xmlns="http://www.w3.org/2000/svg">
<circle cx="30" cy="30" r="30" fill="black"/>
<g clip-path="url(#clip0_147_75)">
<mask id="mask0_147_75" style="mask-type:luminance" maskUnits="userSpaceOnUse" x="16" y="16" width="28" height="28">
<path d="M16 16H44V44H16V16Z" fill="white"/>
</mask>
<g mask="url(#mask0_147_75)">
<path d="M29.2825 33.8208C30.5787 33.8161 33.4125 33.8056 33.3798 32.0031C33.3483 30.1598 30.6265 30.2706 29.3 30.3254C29.1507 30.3324 29.0216 30.3367 28.9127 30.3383L28.9733 33.8231C29.062 33.8208 29.1651 33.82 29.2825 33.8208ZM29.1448 28.7423C30.2263 28.7411 32.5865 28.7388 32.5585 27.0996C32.5282 25.4231 30.2613 25.5223 29.1542 25.5713C29.0297 25.5775 28.9216 25.5814 28.8298 25.5829L28.8847 28.7434L29.1448 28.7423Z" fill="#0BCE5A"/>
<path fill-rule="evenodd" clip-rule="evenodd" d="M26.6122 43.5812C34.1138 45.4514 41.7112 40.8862 43.5813 33.3869C45.4515 25.8864 40.8852 18.289 33.3835 16.42C25.8865 14.5487 18.2892 19.115 16.4202 26.6167C14.55 34.116 19.1152 41.7134 26.6133 43.5824M31.609 23.7257C33.6553 23.8704 35.284 24.47 35.4975 26.3414C35.6562 27.711 35.0962 28.5452 34.1873 29.0282C35.704 29.3642 36.6665 30.245 36.5148 32.261C36.327 34.7635 34.4755 35.467 31.8178 35.6665L31.8622 38.2915L30.2802 38.3195L30.2347 35.7295C29.8255 35.7373 29.404 35.7404 28.97 35.7389L29.0167 38.3405L27.4347 38.3685L27.388 35.7389L26.9412 35.7424C26.714 35.7424 26.4862 35.7447 26.2575 35.7494L24.1972 35.7844L24.4783 33.8897C24.4783 33.8897 25.6497 33.8874 25.6287 33.8699C26.0767 33.8605 26.1898 33.5374 26.2143 33.3344L26.142 29.1834L26.2552 29.181H26.3088C26.2531 29.1743 26.1969 29.1715 26.1408 29.1729L26.0895 26.2095C26.023 25.8899 25.8083 25.5212 25.1678 25.5329C25.1853 25.5095 24.0175 25.5527 24.0175 25.5527L23.9872 23.8634L26.1712 23.826V23.8342C26.5002 23.828 26.8358 23.8179 27.178 23.8039L27.1337 21.2034L28.7157 21.1765L28.76 23.7245C29.1823 23.7094 29.607 23.693 30.0235 23.686L29.9792 21.1544L31.5623 21.1264L31.609 23.7257Z" fill="#0BCE5A"/>
</g>
</g>
<defs>
<clipPath id="clip0_147_75">
<rect width="28" height="28" fill="white" transform="translate(16 16)"/>
</clipPath>
</defs>
</svg>
