<svg width="60" height="60" viewBox="0 0 60 60" fill="none" xmlns="http://www.w3.org/2000/svg">
<circle cx="30" cy="30" r="30" fill="black"/>
<path d="M30 39.8C31.5463 39.8 32.8 38.5463 32.8 37C32.8 35.4536 31.5463 34.2 30 34.2C28.4536 34.2 27.2 35.4536 27.2 37C27.2 38.5463 28.4536 39.8 30 39.8Z" fill="#0BCE5A"/>
<path d="M17.4 26.36C18.9766 24.4234 20.9154 22.8723 23.0879 21.81C25.2603 20.7476 27.6165 20.1981 30 20.1981C32.3835 20.1981 34.7398 20.7476 36.9122 21.81C39.0846 22.8723 41.0235 24.4234 42.6 26.36L40.5 28.32C39.1862 26.6664 37.5705 25.3421 35.7602 24.435C33.9498 23.5278 31.9863 23.0587 30 23.0587C28.0138 23.0587 26.0502 23.5278 24.2399 24.435C22.4295 25.3421 20.8138 26.6664 19.5 28.32L17.4 26.36ZM22.58 30.84C23.5 29.703 24.6468 28.7891 25.9405 28.1622C27.2342 27.5354 28.6435 27.2106 30.07 27.2106C31.4965 27.2106 32.9059 27.5354 34.1996 28.1622C35.4932 28.7891 36.6401 29.703 37.56 30.84L35.6 32.8C34.9441 31.9333 34.113 31.2339 33.168 30.7533C32.2229 30.2727 31.1882 30.0232 30.14 30.0232C29.0919 30.0232 28.0571 30.2727 27.1121 30.7533C26.1671 31.2339 25.3359 31.9333 24.68 32.8L22.58 30.84Z" fill="#0BCE5A"/>
</svg>
