<svg width="42" height="42" viewBox="0 0 42 42" fill="none" xmlns="http://www.w3.org/2000/svg">
<circle cx="21" cy="21" r="21" fill="#F80004" fill-opacity="0.1"/>
<path d="M19 24L19 21" stroke="#F80004" stroke-width="1.2" stroke-linecap="round"/>
<path d="M23 24L23 21" stroke="#F80004" stroke-width="1.2" stroke-linecap="round"/>
<path d="M12 16H30C29.0681 16 28.6022 16 28.2346 16.1522C27.7446 16.3552 27.3552 16.7446 27.1522 17.2346C27 17.6022 27 18.0681 27 19V25C27 26.8856 27 27.8284 26.4142 28.4142C25.8284 29 24.8856 29 23 29H19C17.1144 29 16.1716 29 15.5858 28.4142C15 27.8284 15 26.8856 15 25V19C15 18.0681 15 17.6022 14.8478 17.2346C14.6448 16.7446 14.2554 16.3552 13.7654 16.1522C13.3978 16 12.9319 16 12 16Z" fill="#F80004" fill-opacity="0.25" stroke="#F80004" stroke-width="1.2" stroke-linecap="round"/>
<path d="M19.0681 12.3706C19.1821 12.2643 19.4332 12.1703 19.7825 12.1033C20.1318 12.0363 20.5597 12 21 12C21.4403 12 21.8682 12.0363 22.2175 12.1033C22.5668 12.1703 22.8179 12.2643 22.9319 12.3706" stroke="#F80004" stroke-width="1.2" stroke-linecap="round"/>
</svg>
