<svg width="60" height="60" viewBox="0 0 60 60" fill="none" xmlns="http://www.w3.org/2000/svg">
<circle cx="30" cy="30" r="30" fill="black"/>
<path d="M24.75 19.36H20.8125C19.5361 19.36 18.3121 19.8738 17.4095 20.7883C16.507 21.7029 16 22.9433 16 24.2367V28.2267H19.969C19.5838 27.5505 19.4296 26.7645 19.5302 25.9905C19.6308 25.2165 19.9806 24.4977 20.5253 23.9457C21.0701 23.3936 21.7794 23.0392 22.5432 22.9372C23.3071 22.8353 24.0828 22.9916 24.75 23.3819V19.36ZM26.5 26.4533V28.2267H28.25C28.5961 28.2267 28.9345 28.1226 29.2222 27.9278C29.51 27.7329 29.7343 27.456 29.8668 27.1319C29.9992 26.8079 30.0339 26.4514 29.9664 26.1074C29.8989 25.7634 29.7322 25.4474 29.4874 25.1994C29.2427 24.9514 28.9309 24.7825 28.5914 24.7141C28.2519 24.6456 27.9001 24.6808 27.5803 24.815C27.2605 24.9492 26.9872 25.1765 26.7949 25.4681C26.6026 25.7597 26.5 26.1026 26.5 26.4533ZM31.281 28.2267C31.6662 27.5505 31.8204 26.7645 31.7198 25.9905C31.6192 25.2165 31.2694 24.4977 30.7247 23.9457C30.1799 23.3936 29.4706 23.0392 28.7068 22.9372C27.9429 22.8353 27.1672 22.9916 26.5 23.3819V19.36H39.1875C40.4639 19.36 41.6879 19.8738 42.5905 20.7883C43.493 21.7029 44 22.9433 44 24.2367V28.2267H31.281ZM27.7372 30L30.6195 32.9189C30.7838 33.0854 30.8761 33.3112 30.8761 33.5467C30.8761 33.7821 30.7838 34.0079 30.6195 34.1744C30.4552 34.3409 30.2324 34.4344 30 34.4344C29.7676 34.4344 29.5448 34.3409 29.3805 34.1744L26.5 31.2537V40.64H39.1875C40.4639 40.64 41.6879 40.1262 42.5905 39.2116C43.493 38.2971 44 37.0567 44 35.7633V30H27.7372ZM24.75 40.64V31.2537L21.8695 34.1744C21.7052 34.3409 21.4824 34.4344 21.25 34.4344C21.0176 34.4344 20.7948 34.3409 20.6305 34.1744C20.4662 34.0079 20.3739 33.7821 20.3739 33.5467C20.3739 33.3112 20.4662 33.0854 20.6305 32.9189L23.5128 30H16V35.7633C16 37.0567 16.507 38.2971 17.4095 39.2116C18.3121 40.1262 19.5361 40.64 20.8125 40.64H24.75ZM24.75 26.4533C24.75 26.1026 24.6474 25.7597 24.4551 25.4681C24.2628 25.1765 23.9895 24.9492 23.6697 24.815C23.3499 24.6808 22.9981 24.6456 22.6586 24.7141C22.3191 24.7825 22.0073 24.9514 21.7626 25.1994C21.5178 25.4474 21.3511 25.7634 21.2836 26.1074C21.2161 26.4514 21.2508 26.8079 21.3832 27.1319C21.5157 27.456 21.74 27.7329 22.0278 27.9278C22.3155 28.1226 22.6539 28.2267 23 28.2267H24.75V26.4533Z" fill="#0BCE5A"/>
</svg>
