<svg width="120" height="124" viewBox="0 0 120 124" fill="none" xmlns="http://www.w3.org/2000/svg">
<path d="M118.059 50.8754H0V65.0468H118.059V50.8754Z" fill="#85E7AC"/>
<path fill-rule="evenodd" clip-rule="evenodd" d="M57.7058 55.9417C58.2183 56.1102 58.7547 56.194 59.294 56.1897C60.985 56.2043 62.5799 55.4016 63.58 54.0329C64.58 52.6639 64.8633 50.8957 64.3411 49.2812C62.6117 43.7897 53.647 16.12 47.1176 9.56571C39.0301 2.0726 26.492 2.3245 18.7097 10.1365C10.9273 17.9485 10.6764 30.5343 18.1411 38.6526C24.7058 45.2069 52.2352 54.2057 57.7058 55.9417ZM23.4382 20.291C24.9829 16.5775 28.6028 14.1627 32.6117 14.1714C35.2204 14.1806 37.7198 15.2249 39.5646 17.0766C41.9646 19.4857 46.6587 30.7166 50.8234 42.4435C39.1411 38.2275 27.9529 33.5509 25.5529 31.1417C22.7281 28.2862 21.8936 24.0045 23.4382 20.291Z" fill="#85E7AC"/>
<path fill-rule="evenodd" clip-rule="evenodd" d="M55.0084 54.0328C56.0084 55.4016 57.6032 56.2042 59.2943 56.1897C59.8451 56.1941 60.3932 56.1103 60.9178 55.9417C66.3884 54.2057 93.9531 45.2069 100.483 38.6526C106.01 33.5314 108.3 25.7837 106.451 18.4648C104.601 11.1462 98.9081 5.43153 91.617 3.57477C84.3261 1.71804 76.6077 4.0173 71.5061 9.56569C64.8355 16.12 55.9767 43.7897 54.2472 49.2811C53.7251 50.8958 54.0083 52.6639 55.0084 54.0328ZM78.9178 17.0765C80.784 15.192 83.3296 14.1443 85.9767 14.1714H85.914C89.9058 14.1801 93.5051 16.5909 95.0443 20.291C96.5887 24.0044 95.7544 28.2862 92.9296 31.1417C90.5296 33.5509 79.3414 38.2983 67.659 42.4434C71.859 30.7166 76.5178 19.4857 78.9178 17.0765Z" fill="#85E7AC"/>
<path d="M107.859 75.6754H64.3057V122.795H107.859V75.6754Z" fill="#85E7AC"/>
<path d="M10.588 75.6754H10.5527V122.795H53.7174V75.6754H10.588Z" fill="#0BCE5A"/>
</svg>
