<svg width="18" height="18" viewBox="0 0 18 18" fill="none" xmlns="http://www.w3.org/2000/svg">
<circle cx="9" cy="9" r="9" fill="#32A071" fill-opacity="0.2"/>
<path d="M6.3554 11.8583L6.34668 12.3582L5.84675 12.3495L5.85548 11.8496L6.3554 11.8583ZM11.2573 6.42952C11.456 6.23769 11.7725 6.24322 11.9643 6.44186C12.1561 6.6405 12.1506 6.95703 11.952 7.14886L11.6046 6.78919L11.2573 6.42952ZM10.4828 11.9304L10.474 12.4303L6.34668 12.3582L6.3554 11.8583L6.36413 11.3584L10.4915 11.4304L10.4828 11.9304ZM6.3554 11.8583L5.85548 11.8496L5.92752 7.72224L6.42745 7.73097L6.92737 7.73969L6.85533 11.867L6.3554 11.8583ZM6.3554 11.8583L6.00808 11.4986L11.2573 6.42952L11.6046 6.78919L11.952 7.14886L6.70273 12.218L6.3554 11.8583Z" fill="#32A071"/>
</svg>
