<svg width="51" height="51" viewBox="0 0 51 51" fill="none" xmlns="http://www.w3.org/2000/svg">
<circle cx="25.5" cy="25.5" r="25.5" fill="white"/>
<path d="M16 25.2279C16 23.2755 16 22.2993 16.3921 21.4413C16.7842 20.5832 17.5205 19.9479 18.9932 18.6773L20.4218 17.4448C23.0837 15.1483 24.4146 14 26 14C27.5854 14 28.9163 15.1483 31.5782 17.4448L33.0068 18.6773C34.4795 19.9479 35.2158 20.5832 35.6079 21.4413C36 22.2993 36 23.2755 36 25.2279V31.3252C36 34.0366 36 35.3923 35.1632 36.2346C34.3263 37.0769 32.9795 37.0769 30.2857 37.0769H21.7143C19.0205 37.0769 17.6737 37.0769 16.8368 36.2346C16 35.3923 16 34.0366 16 31.3252V25.2279Z" stroke="black" stroke-width="2.5"/>
<path d="M29.8462 37.0769V29.6154C29.8462 29.0631 29.3984 28.6154 28.8462 28.6154H23.1538C22.6016 28.6154 22.1538 29.0631 22.1538 29.6154V37.0769" stroke="black" stroke-width="2.5" stroke-linecap="round" stroke-linejoin="round"/>
</svg>
