<svg width="213" height="54" viewBox="0 0 213 54" fill="none" xmlns="http://www.w3.org/2000/svg">
<path d="M26.5859 0C41.269 0 53.1727 11.9029 53.1729 26.5859C53.1729 41.2691 41.2691 53.1729 26.5859 53.1729C11.9029 53.1727 0 41.269 0 26.5859C0.000132973 11.903 11.903 0.000132981 26.5859 0ZM39.0488 27.2754C36.7323 26.2865 30.0155 27.1665 26.9463 27.7305L20.7314 28.707C19.3214 28.9131 15.8249 29.4684 13.1182 30.041C10.4117 30.6138 9.58282 33.5979 9.50684 35.0186C9.33332 36.3959 8.98633 39.307 8.98633 39.9316C9.19458 44.044 12.8258 44.9858 14.6152 44.9424H33.876C34.6242 44.9532 36.3611 44.955 37.3242 44.877C39.5713 44.4917 40.8054 43.5048 41.4629 42.9785L41.4893 42.957C43.8316 40.8423 44.1244 38.4024 44.2871 37.3613C44.5128 34.3946 43.684 32.3226 43.3525 31.4941L43.3438 31.4727C41.6845 27.9263 39.6019 27.5031 39.0488 27.2754ZM16.7305 8.14453C14.0496 8.35276 12.8182 10.5204 12.4678 11.4639C12.0447 12.6035 10.6789 18.0036 10.874 23.8916C11.4206 27.5616 13.8022 27.3081 15.8193 27.0479L28.1494 25.0957C30.4265 24.727 35.0719 23.9699 35.4375 23.8916C37.7148 23.5337 39.3092 22.2002 39.5371 22.0049C41.9765 19.8257 41.6525 16.7034 41.6523 16.3115C41.6523 11.991 36.3164 10.0646 33.6484 9.6416L31.8916 9.38086L26.0674 8.69824C24.0393 8.51388 19.3333 8.14457 16.7305 8.14453Z" fill="#0BCE5A"/>
<path d="M72.5478 20.5912C74.3479 20.5912 75.9878 21.0289 77.4674 21.9043C78.947 22.7798 80.1245 23.9573 80.9999 25.4368C81.8753 26.9041 82.313 28.5316 82.313 30.3194C82.313 31.6634 82.0602 32.9272 81.5547 34.1109C81.0492 35.2945 80.3464 36.3364 79.4463 37.2365C78.5586 38.1242 77.5229 38.8209 76.3392 39.3264C75.1679 39.8319 73.9041 40.0847 72.5478 40.0847C71.3888 40.0847 70.3592 39.8257 69.4592 39.3079C68.5714 38.7777 67.8255 38.0934 67.2213 37.255V39.6038H62.7086V11.8617H67.2213V23.4209C67.8255 22.5825 68.5714 21.9043 69.4592 21.3865C70.3592 20.8563 71.3888 20.5912 72.5478 20.5912ZM72.4923 35.7199C73.454 35.7199 74.3233 35.4795 75.1001 34.9986C75.8892 34.5054 76.518 33.8519 76.9865 33.0382C77.4551 32.2244 77.6893 31.3182 77.6893 30.3194C77.6893 29.3331 77.4551 28.433 76.9865 27.6192C76.518 26.7931 75.8892 26.1396 75.1001 25.6588C74.311 25.1779 73.4417 24.9375 72.4923 24.9375C71.5552 24.9375 70.7168 25.1841 69.977 25.6773C69.2372 26.1581 68.6577 26.8116 68.2385 27.6377C67.8193 28.4515 67.6097 29.3454 67.6097 30.3194C67.6097 31.3182 67.8193 32.2306 68.2385 33.0567C68.6577 33.8704 69.2372 34.5177 69.977 34.9986C70.7168 35.4795 71.5552 35.7199 72.4923 35.7199Z" fill="white"/>
<path d="M84.4457 21.1091H88.9584V39.6038H84.4457V21.1091ZM86.739 18.7232C86.0732 18.7232 85.5122 18.5075 85.056 18.0759C84.5998 17.6321 84.3717 17.0772 84.3717 16.4114C84.3717 15.7579 84.5998 15.2092 85.056 14.7654C85.5122 14.3215 86.0671 14.0996 86.7205 14.0996C87.374 14.0996 87.9227 14.3215 88.3666 14.7654C88.8228 15.2092 89.0509 15.7579 89.0509 16.4114C89.0509 17.0772 88.8289 17.6321 88.3851 18.0759C87.9412 18.5075 87.3925 18.7232 86.739 18.7232Z" fill="white"/>
<path d="M93.1064 39.6038V11.8617H97.6191V39.6038H93.1064Z" fill="white"/>
<path d="M101.695 39.6038V11.8617H106.208V39.6038H101.695Z" fill="white"/>
<path d="M120.123 20.5912C121.923 20.5912 123.563 21.0289 125.042 21.9043C126.522 22.7798 127.699 23.9573 128.575 25.4368C129.45 26.9041 129.888 28.5316 129.888 30.3194C129.888 31.6634 129.635 32.9272 129.13 34.1109C128.624 35.2945 127.921 36.3364 127.021 37.2365C126.133 38.1242 125.098 38.8209 123.914 39.3264C122.743 39.8319 121.479 40.0847 120.123 40.0847C118.964 40.0847 117.934 39.8257 117.034 39.3079C116.146 38.7777 115.4 38.0934 114.796 37.255V39.6038H110.283V11.8617H114.796V23.4209C115.4 22.5825 116.146 21.9043 117.034 21.3865C117.934 20.8563 118.964 20.5912 120.123 20.5912ZM120.067 35.7199C121.029 35.7199 121.898 35.4795 122.675 34.9986C123.464 34.5054 124.093 33.8519 124.561 33.0382C125.03 32.2244 125.264 31.3182 125.264 30.3194C125.264 29.3331 125.03 28.433 124.561 27.6192C124.093 26.7931 123.464 26.1396 122.675 25.6588C121.886 25.1779 121.017 24.9375 120.067 24.9375C119.13 24.9375 118.292 25.1841 117.552 25.6773C116.812 26.1581 116.233 26.8116 115.813 27.6377C115.394 28.4515 115.185 29.3454 115.185 30.3194C115.185 31.3182 115.394 32.2306 115.813 33.0567C116.233 33.8704 116.812 34.5177 117.552 34.9986C118.292 35.4795 119.13 35.7199 120.067 35.7199Z" fill="white"/>
<path d="M131.281 32.7607V21.1091H135.793V31.5771C135.793 32.3045 135.972 32.9704 136.33 33.5745C136.687 34.1663 137.162 34.641 137.754 34.9986C138.358 35.3438 139.018 35.5165 139.733 35.5165C140.473 35.5165 141.138 35.3438 141.73 34.9986C142.322 34.641 142.797 34.1663 143.154 33.5745C143.512 32.9704 143.691 32.3045 143.691 31.5771V21.1091H148.203L148.222 39.6038H143.709L143.691 37.9208C143.05 38.5866 142.291 39.1168 141.416 39.5113C140.54 39.8936 139.603 40.0847 138.605 40.0847C137.261 40.0847 136.034 39.7579 134.924 39.1044C133.814 38.4386 132.927 37.5571 132.261 36.4597C131.607 35.35 131.281 34.117 131.281 32.7607Z" fill="white"/>
<path d="M165.247 11.8617H169.76V39.6038H165.247V37.292C164.655 38.1181 163.909 38.79 163.009 39.3079C162.109 39.8257 161.067 40.0847 159.884 40.0847C158.54 40.0847 157.282 39.8319 156.111 39.3264C154.939 38.8209 153.904 38.1242 153.004 37.2365C152.116 36.3364 151.419 35.3007 150.914 34.1294C150.408 32.958 150.155 31.7004 150.155 30.3564C150.155 29.0125 150.408 27.7548 150.914 26.5835C151.419 25.4122 152.116 24.3826 153.004 23.4949C153.904 22.5948 154.939 21.892 156.111 21.3865C157.282 20.881 158.54 20.6282 159.884 20.6282C161.067 20.6282 162.109 20.8871 163.009 21.405C163.909 21.9105 164.655 22.5825 165.247 23.4209V11.8617ZM159.939 35.7384C160.901 35.7384 161.752 35.498 162.491 35.0171C163.231 34.5362 163.811 33.8889 164.23 33.0752C164.649 32.2491 164.859 31.3428 164.859 30.3564C164.859 29.3577 164.649 28.4515 164.23 27.6377C163.811 26.8116 163.225 26.1581 162.473 25.6773C161.733 25.1964 160.889 24.956 159.939 24.956C158.99 24.956 158.121 25.2026 157.331 25.6958C156.555 26.1766 155.932 26.8239 155.463 27.6377C155.007 28.4515 154.779 29.3577 154.779 30.3564C154.779 31.3551 155.013 32.2614 155.482 33.0752C155.95 33.8889 156.573 34.5362 157.35 35.0171C158.139 35.498 159.002 35.7384 159.939 35.7384Z" fill="white"/>
<path d="M187.526 11.8617H192.039V39.6038H187.526V37.292C186.934 38.1181 186.188 38.79 185.288 39.3079C184.388 39.8257 183.346 40.0847 182.163 40.0847C180.819 40.0847 179.561 39.8319 178.39 39.3264C177.218 38.8209 176.183 38.1242 175.283 37.2365C174.395 36.3364 173.698 35.3007 173.193 34.1294C172.687 32.958 172.434 31.7004 172.434 30.3564C172.434 29.0125 172.687 27.7548 173.193 26.5835C173.698 25.4122 174.395 24.3826 175.283 23.4949C176.183 22.5948 177.218 21.892 178.39 21.3865C179.561 20.881 180.819 20.6282 182.163 20.6282C183.346 20.6282 184.388 20.8871 185.288 21.405C186.188 21.9105 186.934 22.5825 187.526 23.4209V11.8617ZM182.218 35.7384C183.18 35.7384 184.031 35.498 184.77 35.0171C185.51 34.5362 186.09 33.8889 186.509 33.0752C186.928 32.2491 187.138 31.3428 187.138 30.3564C187.138 29.3577 186.928 28.4515 186.509 27.6377C186.09 26.8116 185.504 26.1581 184.752 25.6773C184.012 25.1964 183.168 24.956 182.218 24.956C181.269 24.956 180.399 25.2026 179.61 25.6958C178.834 26.1766 178.211 26.8239 177.742 27.6377C177.286 28.4515 177.058 29.3577 177.058 30.3564C177.058 31.3551 177.292 32.2614 177.761 33.0752C178.229 33.8889 178.852 34.5362 179.629 35.0171C180.418 35.498 181.281 35.7384 182.218 35.7384Z" fill="white"/>
<path d="M207.535 21.1091H212.325L202.209 48.8512H197.418L200.766 39.6038L194.108 21.1091H199.046L203.022 33.4266L207.535 21.1091Z" fill="white"/>
</svg>
