<svg width="60" height="60" viewBox="0 0 60 60" fill="none" xmlns="http://www.w3.org/2000/svg">
<circle cx="30" cy="30" r="30" fill="black"/>
<path d="M27.375 41.375H32.625V43.125H27.375V41.375ZM26.5 38.75H33.5V40.5H26.5V38.75ZM36.2027 19.4284C34.5582 17.7817 32.3554 16.875 30 16.875C28.8502 16.8723 27.7111 17.0967 26.6483 17.5355C25.5855 17.9743 24.6198 18.6187 23.8067 19.4317C22.9937 20.2448 22.3493 21.2105 21.9105 22.2733C21.4717 23.3361 21.2473 24.4752 21.25 25.625C21.25 28.1746 22.2273 30.5595 23.9297 32.1678L24.1681 32.3915C25.1531 33.3124 26.5 34.5741 26.5 35.6875V37.875H29.125V30.717L26.7035 29.3438L27.7031 27.9066L30 29.125L32.2581 27.9006L33.3026 29.3049L30.875 30.7268V37.875H33.5V35.6875C33.5 34.6003 34.8322 33.3398 35.8051 32.4189L36.0736 32.164C37.8247 30.4922 38.75 28.2287 38.75 25.625C38.7558 24.4751 38.5337 23.3354 38.0965 22.2718C37.6592 21.2082 37.0156 20.2418 36.2027 19.4284Z" fill="#0BCE5A"/>
</svg>
