<svg width="18" height="18" viewBox="0 0 18 18" fill="none" xmlns="http://www.w3.org/2000/svg">
<circle cx="9" cy="9" r="9" fill="#FF3366" fill-opacity="0.2"/>
<path d="M11.5089 6.49123L11.5089 5.99123L12.0089 5.99123L12.0089 6.49123L11.5089 6.49123ZM6.70252 12.0048C6.50726 12.2 6.19067 12.2 5.99541 12.0048C5.80015 11.8095 5.80015 11.4929 5.99541 11.2976L6.34897 11.6512L6.70252 12.0048ZM7.38096 6.49123L7.38096 5.99123H11.5089L11.5089 6.49123L11.5089 6.99123H7.38096L7.38096 6.49123ZM11.5089 6.49123L12.0089 6.49123L12.0089 10.6192H11.5089H11.0089L11.0089 6.49123L11.5089 6.49123ZM11.5089 6.49123L11.8625 6.84479L6.70252 12.0048L6.34897 11.6512L5.99541 11.2976L11.1554 6.13768L11.5089 6.49123Z" fill="#FF3366"/>
</svg>
