<svg width="28" height="28" viewBox="0 0 28 28" fill="none" xmlns="http://www.w3.org/2000/svg">
<ellipse cx="6.90789" cy="6.90789" rx="6.90789" ry="6.90789" transform="matrix(4.37114e-08 -1 -1 -4.37114e-08 24.3618 20.908)" fill="white" fill-opacity="0.25"/>
<path d="M24.6616 13.9998C24.6615 10.0191 21.4343 6.79175 17.4536 6.79175C13.473 6.79191 10.2458 10.0192 10.2456 13.9998C10.2456 17.9805 13.4729 21.2076 17.4536 21.2078C21.4344 21.2078 24.6616 17.9806 24.6616 13.9998Z" stroke="white" stroke-opacity="0.25" stroke-width="0.6"/>
<path d="M10.546 21.9766C11.9462 22.785 13.5345 23.2106 15.1513 23.2106C16.7681 23.2106 18.3564 22.785 19.7566 21.9766C21.1567 21.1682 22.3194 20.0055 23.1278 18.6053C23.9362 17.2052 24.3618 15.6169 24.3618 14.0001C24.3618 12.3833 23.9362 10.795 23.1278 9.39481C22.3194 7.99464 21.1567 6.83192 19.7566 6.02353C18.3564 5.21514 16.7681 4.78955 15.1513 4.78955C13.5345 4.78955 11.9462 5.21513 10.546 6.02353" stroke="white" stroke-width="2"/>
<path d="M3.63818 14.0002L2.85731 13.3755L2.35756 14.0002L2.85731 14.6249L3.63818 14.0002ZM14 15.0002C14.5523 15.0002 15 14.5525 15 14.0002C15 13.4479 14.5523 13.0002 14 13.0002V14.0002V15.0002ZM8.24345 8.24365L7.46258 7.61896L2.85731 13.3755L3.63818 14.0002L4.41905 14.6249L9.02432 8.86835L8.24345 8.24365ZM3.63818 14.0002L2.85731 14.6249L7.46258 20.3815L8.24345 19.7568L9.02432 19.1321L4.41905 13.3755L3.63818 14.0002ZM3.63818 14.0002V15.0002H14V14.0002V13.0002H3.63818V14.0002Z" fill="white"/>
</svg>
