<svg width="23" height="23" viewBox="0 0 23 23" fill="none" xmlns="http://www.w3.org/2000/svg">
<path d="M9.37466 10.5377C9.24162 10.8311 9.1667 11.1565 9.16666 11.4996C9.16666 12.7882 10.2111 13.8334 11.4997 13.8336C11.8427 13.8336 12.1672 13.7567 12.4606 13.6237L13.5661 14.7291C12.9697 15.1115 12.2606 15.3336 11.4997 15.3336L11.3024 15.3287C9.27712 15.2259 7.66666 13.5505 7.66666 11.4996C7.66672 10.7389 7.88895 10.0304 8.27115 9.4342L9.37466 10.5377ZM11.4997 7.66663C13.6166 7.66663 15.3335 9.38269 15.3336 11.4996L15.3288 11.6969C15.3203 11.8648 15.2996 12.0295 15.2702 12.191L13.6305 10.5514C13.3961 10.0261 12.9743 9.60413 12.4489 9.36975L10.8083 7.72913C11.0325 7.68825 11.2636 7.66665 11.4997 7.66663Z" fill="white"/>
<path d="M7.05954 8.22266C5.87126 9.10665 4.89864 10.1503 4.26657 10.9131C4.05802 11.1648 3.95571 11.2914 3.8945 11.3936C3.85284 11.4631 3.85544 11.4805 3.85544 11.5C3.85544 11.5195 3.85284 11.5369 3.8945 11.6064C3.95571 11.7086 4.05803 11.8352 4.26657 12.0869C4.9327 12.8908 5.97531 14.009 7.25192 14.9209C8.53418 15.8368 9.99045 16.5 11.5 16.5C12.5452 16.5 13.5645 16.1813 14.5185 15.6816L15.622 16.7852C14.4091 17.4873 13.0102 18 11.5 18C9.55591 18 7.7951 17.1525 6.37985 16.1416C4.95916 15.1268 3.8236 13.9023 3.11227 13.0439C2.77713 12.6395 2.35544 12.1847 2.35544 11.5C2.35544 10.8153 2.77713 10.3605 3.11227 9.95605C3.75674 9.17837 4.75077 8.10189 5.98825 7.15137L7.05954 8.22266ZM11.5 5C13.444 5 15.2048 5.84749 16.6201 6.8584C18.0408 7.8732 19.1763 9.09769 19.8877 9.95605C20.2228 10.3605 20.6445 10.8153 20.6445 11.5C20.6445 12.1847 20.2228 12.6395 19.8877 13.0439C19.4358 13.5892 18.8113 14.2805 18.0527 14.9736L16.9902 13.9111C17.704 13.2648 18.2996 12.6104 18.7334 12.0869C18.9419 11.8353 19.0442 11.7086 19.1054 11.6064C19.1471 11.5369 19.1445 11.5195 19.1445 11.5C19.1445 11.4805 19.1471 11.4631 19.1054 11.3936C19.0442 11.2914 18.9419 11.1647 18.7334 10.9131C18.0672 10.1092 17.0246 8.99098 15.748 8.0791C14.4658 7.1632 13.0095 6.5 11.5 6.5C10.9355 6.5 10.3782 6.59185 9.83493 6.75586L8.6611 5.58203C9.54381 5.22516 10.4976 5.00001 11.5 5Z" fill="white"/>
<path d="M6 3L21.3333 18.3333" stroke="white" stroke-width="1.5"/>
</svg>
