<svg width="163" height="219" viewBox="0 0 163 219" fill="none" xmlns="http://www.w3.org/2000/svg">
<path d="M4.89978 127.415C-8.96262 130.295 -13.7542 147.562 -14.4172 155.836C-15.5676 163.839 -17.8988 180.758 -18.0207 184.402C-17.7659 208.424 0.494673 214.532 9.59309 214.583L107.434 217.858C111.233 218.048 120.058 218.357 124.965 218.065C136.458 216.2 142.917 210.65 146.359 207.693L146.495 207.577C158.807 195.64 160.771 181.457 161.801 175.413C163.527 158.147 159.72 145.922 158.198 141.033L158.158 140.904C150.421 119.938 139.926 117.117 137.161 115.694C125.587 109.531 91.292 113.525 75.5912 116.293L43.8338 120.929C36.6318 121.891 18.7622 124.536 4.89978 127.415Z" fill="#0AB951"/>
<path d="M27.5203 0.316642C13.8613 1.07531 7.18612 13.5045 5.22175 18.9482C2.85095 25.5181 -5.14495 56.7871 -5.30297 91.1681C-3.2429 112.667 8.90455 111.591 19.2022 110.416L82.2213 101.127C93.8623 99.3635 117.611 95.7382 119.477 95.3447C131.116 93.6445 139.475 86.1352 140.67 85.0353C153.491 72.7358 152.448 54.4629 152.524 52.1857C153.368 26.9846 126.639 14.8432 113.169 11.9226L104.296 10.1057L74.8453 5.13037C64.5793 3.7102 40.742 0.759205 27.5203 0.316642Z" fill="#0AB951"/>
</svg>
