<svg width="24" height="24" viewBox="0 0 24 24" fill="none" xmlns="http://www.w3.org/2000/svg">
<circle cx="12" cy="12" r="12" fill="#FF3366" fill-opacity="0.13"/>
<path d="M9.81358 8.74179C9.34774 7.189 10.5105 5.62622 12.1317 5.62622C13.7528 5.62622 14.9156 7.18899 14.4497 8.74179L13.1785 12.9792C13.1596 13.0423 13.1501 13.0739 13.1399 13.1018C13.003 13.4756 12.6576 13.7327 12.2602 13.7563C12.2305 13.7581 12.1976 13.7581 12.1317 13.7581C12.0657 13.7581 12.0328 13.7581 12.0031 13.7563C11.6057 13.7327 11.2603 13.4756 11.1234 13.1018C11.1132 13.0739 11.1037 13.0423 11.0848 12.9792L9.81358 8.74179Z" fill="#FF3366" fill-opacity="0.2" stroke="#FF3366"/>
<ellipse cx="12.1317" cy="17.8241" rx="1.62637" ry="1.62637" fill="#FF3366" fill-opacity="0.2" stroke="#FF3366"/>
</svg>
